<svg xmlns="http://www.w3.org/2000/svg" viewBox="0 0 40 39" width="40" height="39">
	<style>
		tspan { white-space:pre }
		.shp0 { fill: #7289da } 
	</style>
	<path id="Layer" class="shp0" d="M17.04 16.88C16.11 16.88 15.38 17.7 15.38 18.69C15.38 19.68 16.13 20.49 17.04 20.49C17.98 20.49 18.71 19.68 18.71 18.69C18.73 17.7 17.98 16.88 17.04 16.88ZM23 16.88C22.07 16.88 21.34 17.7 21.34 18.69C21.34 19.68 22.09 20.49 23 20.49C23.93 20.49 24.67 19.68 24.67 18.69C24.67 17.7 23.93 16.88 23 16.88Z" />
	<path id="Layer" fill-rule="evenodd" class="shp0" d="M34.29 6.6L34.29 35.75L30.78 32.66L28.8 30.84L26.71 28.91L27.58 31.91L9.06 31.91C7.22 31.91 5.71 30.42 5.71 28.57L5.71 6.6C5.71 4.75 7.22 3.25 9.06 3.25L30.94 3.25C32.78 3.25 34.29 4.75 34.29 6.6ZM24.64 24.47C28.24 24.36 29.63 22 29.63 22C29.63 16.77 27.28 12.53 27.28 12.53C24.93 10.77 22.69 10.82 22.69 10.82L22.47 11.08C25.24 11.93 26.53 13.15 26.53 13.15C24.83 12.22 23.17 11.77 21.62 11.59C20.44 11.46 19.31 11.49 18.32 11.62C18.22 11.62 18.14 11.64 18.04 11.65C17.47 11.7 16.08 11.91 14.33 12.68C13.73 12.95 13.37 13.15 13.37 13.15C13.37 13.15 14.73 11.86 17.67 11.02L17.5 10.82C17.5 10.82 15.27 10.77 12.91 12.53C12.91 12.53 10.56 16.77 10.56 22C10.56 22 11.93 24.36 15.54 24.47C15.54 24.47 16.15 23.74 16.64 23.12C14.56 22.51 13.78 21.21 13.78 21.21C13.78 21.21 13.94 21.32 14.24 21.48C14.25 21.5 14.27 21.52 14.3 21.53C14.35 21.56 14.4 21.58 14.45 21.61C14.86 21.84 15.27 22.02 15.64 22.17C16.31 22.43 17.11 22.69 18.04 22.86C19.27 23.09 20.7 23.17 22.27 22.88C23.04 22.75 23.82 22.52 24.64 22.18C25.21 21.97 25.84 21.66 26.51 21.22C26.51 21.22 25.7 22.56 23.56 23.16C24.05 23.77 24.64 24.47 24.64 24.47Z" />
</svg>