<svg xmlns="http://www.w3.org/2000/svg" viewBox="0 0 40 40" width="40" height="40">
	<path fill="#f34f29" d="M 39.245418,18.218387 21.780934,0.7543134 c -1.005104,-1.0057512 -2.636339,-1.0057512 -3.643027,0 l -3.626236,3.6269148 4.600286,4.6003455 c 1.069429,-0.3609172 2.295073,-0.1188268 3.147131,0.7332411 0.856493,0.8574552 1.096679,2.0935732 0.726895,3.1665012 l 4.433613,4.433987 c 1.072598,-0.36979 2.3106,-0.130868 3.166777,0.72722 1.19776,1.196825 1.19776,3.137032 0,4.33449 -1.19776,1.197775 -3.137308,1.197775 -4.335702,0 -0.900538,-0.901184 -1.123296,-2.224124 -0.667007,-3.333809 l -4.13449,-4.134543 -6.34e-4,10.881696 c 0.292152,0.144176 0.56751,0.336834 0.810865,0.579241 1.197126,1.196825 1.197126,3.136398 0,4.335757 -1.197444,1.196826 -3.138259,1.196826 -4.334434,0 -1.197126,-1.199042 -1.197126,-3.138615 0,-4.335757 0.295954,-0.295641 0.638171,-0.519036 1.00352,-0.668599 V 14.718537 c -0.365349,-0.149562 -0.706932,-0.371372 -1.00352,-0.668916 -0.906876,-0.906254 -1.125198,-2.237114 -0.660036,-3.351235 L 12.729608,6.1629986 0.75454133,18.137585 c -1.00605511,1.006701 -1.00605511,2.637957 0,3.644026 L 18.219341,39.245684 c 1.005738,1.005754 2.63634,1.005754 3.643662,0 L 39.245735,21.86273 c 1.005739,-1.006385 1.005739,-2.638592 -3.17e-4,-3.644343 z" id="path2" style="stroke-width:0.31687"/>
</svg>
