<svg xmlns="http://www.w3.org/2000/svg" enable-background="new 0 0 24 24" height="40" viewBox="0 0 1.875 1.875" width="40">
	<linearGradient id="SVGID_1_" gradientTransform="matrix(0,-0.15436856,-0.14364861,0,-10.318082,-3.9751557)" gradientUnits="userSpaceOnUse" x1="-37.105999" x2="-26.555" y1="-72.705002" y2="-84.046997">
		<stop offset="0" stop-color="#fd5" id="stop2"/>
		<stop offset=".5" stop-color="#ff543e" id="stop4"/>
		<stop offset="1" stop-color="#c837ab" id="stop6"/>
	</linearGradient>
	<path d="M 0.1223057,0.13017557 C -0.02461474,0.28275277 0.00545487,0.44483196 0.00545487,0.93722244 0.00545487,1.34612 -0.06590204,1.75603 0.30755321,1.8525299 0.42417033,1.882516 1.4574432,1.882516 1.5739045,1.8523741 1.729394,1.812263 1.8559045,1.6861669 1.8731984,1.466297 1.8756184,1.43561 1.8756184,0.43938 1.8731205,0.40807013 1.854736,0.17386919 1.7105421,0.03889406 1.5205426,0.01155634 1.4769962,0.00524763 1.4682714,0.00337839 1.2448526,0.00298896 0.45237033,0.00337839 0.2786521,-0.03190363 0.1223057,0.13017557 Z" fill="url(#SVGID_1_)" id="path9" style="fill:url(#SVGID_1_);stroke-width:0.077893"/>
	<path d="m 0.94010564,0.24747075 c -0.28285686,0 -0.55145796,-0.025157 -0.65405298,0.23809519 -0.0423779,0.1087278 -0.0362238,0.24993375 -0.0362238,0.45212381 0,0.17742265 -0.005687,0.34417495 0.0362238,0.45204595 0.10236132,0.2634079 0.37314363,0.2381731 0.65389718,0.2381731 0.27086026,0 0.55013366,0.028195 0.65397516,-0.2381731 0.042456,-0.1098182 0.036224,-0.2489212 0.036224,-0.45204595 0,-0.26963868 0.014879,-0.4437122 -0.115916,-0.57440364 C 1.3818018,0.23088119 1.2027084,0.24747075 0.93979404,0.24747075 Z m -0.061853,0.12438274 C 1.4682714,0.37091886 1.5433675,0.30533949 1.5019244,1.2163632 1.4872014,1.5385744 1.2418145,1.5032145 0.94018358,1.5032145 c -0.54997785,0 -0.56579166,-0.015733 -0.56579166,-0.56583629 0,-0.55649004 0.0436243,-0.56521319 0.50386072,-0.56568049 z M 1.3085752,0.48642268 c -0.045728,0 -0.082808,0.0370734 -0.082808,0.082792 0,0.0457186 0.037081,0.082792 0.082808,0.082792 0.045728,0 0.082808,-0.0370734 0.082808,-0.082792 0,-0.0457186 -0.037081,-0.082792 -0.082808,-0.082792 z m -0.36846952,0.0968114 c -0.19576404,0 -0.35444747,0.15873013 -0.35444747,0.35445571 0,0.19572561 0.15868343,0.35437781 0.35444747,0.35437781 0.19576402,0 0.35436952,-0.1586522 0.35436952,-0.35437781 0,-0.19572558 -0.1586055,-0.35445571 -0.35436952,-0.35445571 z m 0,0.12438273 c 0.30420162,0 0.30459112,0.46014589 0,0.46014589 -0.30412371,0 -0.30459111,-0.46014589 0,-0.46014589 z" fill="#ffffff" id="path11" style="stroke-width:0.077893"/>
</svg>
