<svg xmlns="http://www.w3.org/2000/svg" viewBox="0 0 40 54" width="40" height="54">
	<path fill="#0074bd" d="m 12.881668,41.760545 c 0,0 -2.071232,1.200015 1.475941,1.604951 4.298017,0.488825 6.494354,0.418746 11.22942,-0.472422 0,0 1.247421,0.776517 2.986257,1.449683 -10.6185,4.529336 -24.0308179,-0.262619 -15.691618,-2.582212 z M 11.58339,35.849012 c 0,0 -2.3236542,1.712655 1.226585,2.078667 4.591242,0.471965 8.216233,0.510448 14.491991,-0.692196 0,0 0.865974,0.87602 2.229811,1.354486 C 16.696064,42.32766 2.3995574,38.884134 11.58339,35.849012 Z" id="path38" style="stroke-width:0.433554"/>
	<path fill="#ea2d2e" d="m 22.52085,25.819503 c 2.617796,3.000106 -0.686486,5.69739 -0.686486,5.69739 0,0 6.642902,-3.413652 3.592776,-7.690375 -2.849801,-3.986452 -5.034418,-5.966466 6.79329,-12.796416 0,4.22e-4 -18.566268,4.615885 -9.69958,14.789401 z" id="path40" style="stroke-width:0.433554"/>
	<path fill="#0074bd" d="m 36.564034,46.13371 c 0,0 1.53332,1.258896 -1.689289,2.231801 -6.127221,1.848106 -25.5072546,2.405294 -30.8897319,0.07396 -1.9339176,-0.838366 1.69408,-2.000803 2.83549,-2.246056 1.1900692,-0.256531 1.869617,-0.209824 1.869617,-0.209824 C 6.5380825,44.475129 -5.2192453,48.946929 2.7189091,50.229602 24.36567,53.723294 42.178103,48.656235 36.564034,46.133707 Z M 13.878802,29.722923 c 0,0 -9.8568569,2.331261 -3.490254,3.178753 2.68862,0.358214 8.045882,0.276006 13.039504,-0.141038 4.079897,-0.341329 8.174098,-1.070262 8.174098,-1.070262 0,0 -1.437301,0.61386 -2.478364,1.320735 -10.01151,2.622038 -29.34725297,1.400769 -23.7801182,-1.279629 4.7064102,-2.266423 8.5351342,-2.008559 8.5351342,-2.008559 z m 17.682489,9.840423 c 10.176222,-5.263481 5.470683,-10.321949 2.186373,-9.640603 -0.802955,0.166564 -1.163157,0.311507 -1.163157,0.311507 0,0 0.29894,-0.466803 0.868999,-0.66751 6.49694,-2.273328 11.492742,6.706636 -2.095543,10.2635 0,-8.41e-4 0.155962,-0.14146 0.203328,-0.266894 z" id="path42" style="stroke-width:0.433554"/>
	<path fill="#ea2d2e" d="m 25.42714,0 c 0,0 5.634481,5.6134667 -5.345548,14.242623 -8.805381,6.924231 -2.007781,10.871333 -0.0038,15.382947 -5.139781,-4.617188 -8.910293,-8.682379 -6.3811,-12.465489 C 17.410802,11.608057 27.699995,8.9150967 25.42714,0 Z" id="path44" style="stroke-width:0.433554"/>
	<path fill="#0074bd" d="m 14.87902,53.830618 c 9.765612,0.621629 24.76597,-0.346086 25.120981,-4.947273 0,0 -0.682618,1.744254 -8.071566,3.128151 -8.336156,1.562586 -18.619684,1.380443 -24.7168889,0.378093 0,4.38e-4 1.249162,1.030051 7.6674739,1.441029 z" id="path46" style="stroke-width:0.433554"/>
</svg>
