<svg xmlns="http://www.w3.org/2000/svg" viewBox="0 0 40 40" width="40" height="40">
	<linearGradient id="a" gradientUnits="userSpaceOnUse" x1="70.251999" y1="1237.476" x2="170.659" y2="1151.089" gradientTransform="matrix(0.21996956,0,0,-0.21950253,-16.420473,272.7666)">
		<stop offset="0" stop-color="#5A9FD4" id="stop2"/>
		<stop offset="1" stop-color="#306998" id="stop4"/>
	</linearGradient>
	<path fill="url(#a)" d="M 19.761589,3.073592e-4 C 18.112013,0.00803632 16.537453,0.1467712 15.151215,0.38946061 11.068298,1.1028439 10.327513,2.5960794 10.327513,5.3502951 v 3.6368633 h 9.647794 V 10.199446 H 6.7064154 c -2.8037327,0 -5.2589524,1.666751 -6.0270876,4.838717 -0.88612959,3.634544 -0.92520056,5.902995 0,9.698302 0.6856955,2.825323 2.3235505,4.837945 5.1276739,4.837945 h 3.317516 v -4.359908 c 0,-3.149939 2.7548943,-5.928115 6.0270873,-5.928115 h 9.636855 c 2.682613,0 4.823702,-2.184977 4.823702,-4.849151 V 5.3506816 c 0,-2.5864973 -2.205947,-4.52917199 -4.823702,-4.96083454 C 23.130288,0.11701469 21.410775,-0.00703516 19.761589,3.073592e-4 Z M 14.544052,2.9253332 c 0.996309,0 1.810548,0.8181107 1.810548,1.8244215 0,1.00206 -0.813848,1.8124417 -1.810548,1.8124417 -1.000217,0 -1.810158,-0.8103817 -1.810158,-1.8124417 -3.91e-4,-1.0063108 0.809941,-1.8244215 1.810158,-1.8244215 z" id="path7" style="fill:url(#a);stroke-width:0.388573"/>
	<linearGradient id="b" gradientUnits="userSpaceOnUse" x1="209.474" y1="1098.811" x2="173.62" y2="1149.537" gradientTransform="matrix(0.21996956,0,0,-0.21950253,-16.420473,272.7666)">
		<stop offset="0" stop-color="#FFD43B" id="stop9"/>
		<stop offset="1" stop-color="#FFE873" id="stop11"/>
	</linearGradient>
	<path fill="url(#b)" d="m 30.815157,10.199446 v 4.23779 c 0,3.28481 -2.816236,6.049845 -6.027088,6.049845 h -9.636854 c -2.639635,0 -4.823702,2.234831 -4.823702,4.849538 v 9.087328 c 0,2.585724 2.273149,4.107171 4.823702,4.848767 3.053787,0.887671 5.982546,1.048433 9.636854,0 2.428652,-0.695995 4.823702,-2.095711 4.823702,-4.848767 v -3.63725 h -9.636464 v -1.212674 h 14.460946 c 2.803733,0 3.849272,-1.934173 4.824484,-4.837944 1.007249,-2.989176 0.96388,-5.863964 0,-9.698302 -0.693119,-2.761172 -2.016453,-4.838717 -4.824484,-4.838717 h -3.621096 z m -5.420316,23.011827 c 1.000608,0 1.810549,0.810382 1.810549,1.813215 0,1.005537 -0.810332,1.823649 -1.810549,1.823649 -0.996309,0 -1.810158,-0.818112 -1.810158,-1.823649 0,-1.002833 0.813849,-1.813215 1.810158,-1.813215 z" id="path14" style="fill:url(#b);stroke-width:0.388573"/>
	<radialGradient id="c" cx="1825.678" cy="444.45001" r="26.743" gradientTransform="matrix(0,-0.24,-1.055,0,532.979,557.576)">
		<stop offset="0" stop-color="#B8B8B8" stop-opacity=".498" id="stop16"/>
		<stop offset="1" stop-color="#7F7F7F" stop-opacity="0" id="stop18"/>
	</radialGradient>
</svg>
