<svg xmlns="http://www.w3.org/2000/svg" viewBox="0 0 40 40" width="40" height="40">
	<linearGradient id="a" x2="116.68872" x1="116.68872" y2="232.87497" gradientTransform="matrix(0.17169134,0,0,0.17176598,-0.02574903,0)" y1="0" gradientUnits="userSpaceOnUse">
		<stop stop-color="#111D2E" offset="0" id="stop91"/>
		<stop stop-color="#051839" offset=".21248" id="stop93"/>
		<stop stop-color="#0A1B48" offset=".40695" id="stop95"/>
		<stop stop-color="#132E62" offset=".58110" id="stop97"/>
		<stop stop-color="#144B7E" offset=".73760" id="stop99"/>
		<stop stop-color="#136497" offset=".87279" id="stop101"/>
		<stop stop-color="#1387B8" offset="1" id="stop103"/>
	</linearGradient>
	<path fill="url(#a)" d="M 0.81446134,25.752789 C 3.2869415,33.994849 10.935259,40 19.98722,40 31.039772,40 40,31.045494 40,20 40,8.9543348 31.039772,0 19.98722,0 9.3811337,0 0.70280206,8.2453219 0.01738582,18.671244 1.3124789,20.844635 1.8178489,22.188841 0.8146503,25.752789 Z" id="path108" style="fill:url(#a);stroke-width:0.171728"/>
	<path fill="#ffffff" d="m 18.95633,14.990902 c 0,0.03365 0,0.0673 0.0018,0.09889 l -4.897204,7.109355 c -0.793297,-0.03605 -1.589341,0.103005 -2.344158,0.413735 -0.332745,0.135622 -0.644532,0.302145 -0.937079,0.49442 L 0.02612959,18.683262 c 8.418e-5,0 -0.24882842,4.090986 0.78814279,7.139914 L 8.4163802,28.95794 c 0.3817031,1.704721 1.5518928,3.2 3.2783168,3.919312 2.824636,1.179401 6.081481,-0.164805 7.25648,-2.98884 0.305774,-0.738197 0.448355,-1.512446 0.427741,-2.284979 l 7.00705,-5.004292 c 0.05668,0.0018 0.115094,0.0034 0.171783,0.0034 4.193236,0 7.601421,-3.416308 7.601421,-7.611673 0,-4.195708 -3.408185,-7.6089276 -7.601421,-7.6089276 -4.191518,0 -7.601421,3.4132196 -7.601421,7.6089276 z m -1.174999,14.406523 c -0.909422,2.181974 -3.418492,3.217167 -5.599455,2.309013 -1.006137,-0.418885 -1.765764,-1.186266 -2.2039837,-2.101288 l 2.4745417,1.024892 c 1.60841,0.669529 3.453708,-0.09271 4.12229,-1.69957 0.670642,-1.608584 -0.09019,-3.455793 -1.697737,-4.125321 l -2.558029,-1.059228 c 0.987068,-0.374249 2.109159,-0.387984 3.157553,0.04807 1.056985,0.439485 1.877079,1.266953 2.311691,2.324464 0.434613,1.057511 0.432895,2.224893 -0.0069,3.27897 m 8.776419,-9.335622 c -2.791482,0 -5.064177,-2.274679 -5.064177,-5.070901 0,-2.793992 2.272695,-5.0693566 5.064177,-5.0693566 2.7932,0 5.065897,2.2753646 5.065897,5.0693566 0,2.796222 -2.272697,5.070901 -5.065897,5.070901 M 22.76307,14.983174 c 0,-2.103519 1.704092,-3.809613 3.803287,-3.809613 2.100912,0 3.805004,1.706094 3.805004,3.809613 0,2.103691 -1.704092,3.80824 -3.805004,3.80824 -2.099195,0 -3.803287,-1.704549 -3.803287,-3.80824 z" id="path110" style="stroke-width:0.171728"/>
</svg>
