<svg xmlns="http://www.w3.org/2000/svg" height="40" width="40" viewBox="0 0 40 40">
	<path style="fill:#03a9f4;stroke-width:0.0781251" d="M 40,7.5975 C 38.5125,8.25 36.9275,8.6825 35.274999,8.892499 36.974999,7.8775 38.2725,6.2825 38.882499,4.36 37.297501,5.305 35.5475,5.9725 33.682499,6.345 32.177501,4.7425 30.0325,3.75 27.6925,3.75 c -4.54,0 -8.194999,3.685 -8.194999,8.202499 0,0.650001 0.055,1.275002 0.189999,1.870001 C 12.87,13.49 6.8374999,10.2225 2.785,5.245 2.0774999,6.4725 1.6625001,7.8775 1.6625001,9.39 1.6625001,12.23 3.125,14.747501 5.305,16.204999 3.9874999,16.18 2.695,15.7975 1.6,15.195001 c 0,0.025 0,0.0575 0,0.09 C 1.6,19.27 4.4425001,22.58 8.17,23.3425 c -0.6674999,0.182499 -1.395,0.269999 -2.15,0.269999 -0.525,0 -1.055,-0.03 -1.5525001,-0.14 C 5.53,26.72 8.5450008,29.107501 12.13,29.184999 9.34,31.367501 5.7974999,32.6825 1.9625001,32.6825 1.29,32.6825 0.645,32.652499 0,32.57 c 3.6325001,2.342499 7.9375012,3.68 12.58,3.68 15.09,0 23.34,-12.5 23.34,-23.334999 0,-0.362502 -0.0125,-0.712501 -0.03,-1.06 C 37.517501,10.7 38.885001,9.2575 40,7.5975 Z" id="path2"/>
</svg>
